<?xml version="1.0" encoding="utf-8"?>
<svg width="473" height="76" viewBox="0 0 473 76" fill="none" xmlns="http://www.w3.org/2000/svg">
  <text style="fill: rgb(0, 0, 0); font-family: Arial, sans-serif; font-size: 46px; white-space: pre;" x="91.538" y="54.02">RODRIGO.WORK</text>
  <g transform="matrix(0.246952, 0, 0, 0.246952, -18.121962, 11.739206)" style="">
    <path class="st1" d="M 143.65 106.491 L 234.65 106.491 L 234.65 15.491 L 273.65 -23.509 L 182.65 -23.509 L 143.65 15.491 L 143.65 106.491 Z M 143.65 15.491 L 234.65 15.491 L 143.65 15.491 Z" style="stroke-miterlimit: 0; stroke-width: 8.09874px; stroke: rgb(0, 0, 0);"/>
    <path class="st1" d="M 273.65 -23.509 L 273.65 67.491 L 234.65 106.491 L 234.65 15.491 L 273.65 -23.509 Z M 234.65 197.491 L 325.65 197.491 L 325.65 106.491 L 364.65 67.491 L 273.65 67.491 L 234.65 106.491 L 234.65 197.491 Z M 234.65 106.491 L 325.65 106.491 L 234.65 106.491 Z" style="stroke-miterlimit: 0; stroke-width: 8.09874px; stroke: rgb(0, 0, 0);"/>
    <path class="st1" d="M 364.65 67.491 L 364.65 158.491 L 325.65 197.491 L 325.65 106.491 L 364.65 67.491 Z M 104.65 236.491 L 195.65 236.491 L 195.65 145.491 L 234.65 106.491 L 143.65 106.491 L 104.65 145.491 L 104.65 236.491 Z M 104.65 145.491 L 195.65 145.491 L 104.65 145.491 Z" style="stroke-miterlimit: 0; stroke-width: 8.09874px; stroke: rgb(0, 0, 0);"/>
    <path class="st1" d="M 234.65 106.491 L 234.65 197.491 L 195.65 236.491 L 195.65 146.491 L 234.65 106.491 Z" style="stroke-miterlimit: 0; stroke-width: 8.09874px; stroke: rgb(0, 0, 0);"/>
    <g transform="matrix(1, 0, 0, 1, -21.34972, -149.508942)"/>
  </g>
</svg>